# xmcd
#
# Track frame offsets: 
#        150
#        21092
#        43760
#        62245
#        85260
#        105575
#        126935
#        146557
#        164607
#        181610
#        197392
#        215510
#
# Disc length: 3307 seconds
#
# Revision: 1
# Processed by: cddbd v1.5.2PL0 Copyright (c) Steve Scherf et al.
# Submitted via: ExactAudioCopy v1.3
#
DISCID=a50ce90c
DTITLE=Jimmy Rankin - Handmade
DYEAR=2003
DGENRE=Folk
TTITLE0=Morning Bound Train
TTITLE1=Stay
TTITLE2=Dog Out in the Rain
TTITLE3=Butterfly
TTITLE4=Handmade
TTITLE5=Colorado
TTITLE6=Sweet Wheels
TTITLE7=Tower of Lethendy
TTITLE8=One Last Ride
TTITLE9=The Last Time
TTITLE10=California
TTITLE11=Running Home
EXTD=
EXTT0=
EXTT1=
EXTT2=
EXTT3=
EXTT4=
EXTT5=
EXTT6=
EXTT7=
EXTT8=
EXTT9=
EXTT10=
EXTT11=
PLAYORDER=
